<svg width="50" height="50" viewBox="0 0 50 50" fill="none" xmlns="http://www.w3.org/2000/svg">
<rect width="50" height="50" rx="25" fill="#F8D24E"/>
<g clip-path="url(#clip0_27651_11106)">
<path d="M13.9394 7.21631C13.6462 7.47 12.8072 9.22042 12.5059 10.176C12.1475 11.3598 12.0253 12.2477 12.0742 13.4739C12.1394 15.2243 12.5792 16.5519 13.5484 17.9387C13.8009 18.3023 14.0045 18.6152 14.0045 18.6406C14.0045 18.6575 13.8498 18.6744 13.6543 18.6744C12.8154 18.6744 11.2434 18.9534 10.038 19.3171C8.12398 19.8921 7 20.8984 7 22.023C7 22.4205 7.35837 23.097 7.74118 23.4437C8.48235 24.1117 10.1032 24.7459 11.8462 25.0503C12.4489 25.1603 14.2407 25.3463 14.6398 25.3548C14.7131 25.3548 14.7376 25.7437 14.7376 27.0206C14.7376 28.1199 14.7783 28.974 14.8597 29.4983C15.1529 31.3755 16.0652 33.3627 17.2706 34.7664L17.686 35.2484L17.409 35.6966C17.0018 36.3308 16.8471 36.8128 16.7982 37.5316C16.676 39.2567 17.7511 40.7872 19.8281 41.8612C23.7864 43.916 29.9357 43.1127 32.2407 40.2376C33.3647 38.8339 33.495 37.2272 32.6072 35.7727L32.3303 35.3245L32.8272 34.7242C33.7557 33.608 34.3584 32.4917 34.8145 31.0796C35.1973 29.8788 35.3439 28.7203 35.3439 26.8853C35.3439 26.0482 35.3683 25.3548 35.4091 25.3548C35.7837 25.3463 37.5837 25.1518 38.1538 25.0503C39.905 24.7459 41.4932 24.1202 42.2588 23.4437C42.6416 23.097 43 22.4205 43 22.023C43 20.7715 41.7294 19.7568 39.3674 19.1479C38.5937 18.945 37.1357 18.6998 36.4272 18.6575L36.0932 18.6321L36.4597 18.1247C36.9158 17.5074 37.486 16.3067 37.7059 15.5203C38.3249 13.2456 37.9421 10.5988 36.6145 8.07038C36.0606 7.02182 35.6778 6.7766 35.2299 7.19094C35.0588 7.35161 34.9855 7.57147 34.8226 8.36635C34.3176 10.8947 33.381 12.8988 32.0127 14.3787L31.41 15.0383H24.9674H18.5249L17.9873 14.4548C16.6516 12.9834 15.6824 10.9032 15.1774 8.36635C15.0145 7.57147 14.9412 7.35161 14.7701 7.19094C14.5014 6.94572 14.2407 6.95417 13.9394 7.21631ZM14.9819 12.2308C15.4136 13.1779 15.9511 14.0658 16.5864 14.886L17.0914 15.5372L16.562 15.9346C16.0652 16.3151 15.6009 16.8563 15.2425 17.4736L15.0878 17.7527L14.6968 17.2199C13.3611 15.3765 13.0271 13.1187 13.7357 10.7764C14.0778 9.64323 14.0697 9.65169 14.3792 10.6326C14.5258 11.1061 14.8027 11.8249 14.9819 12.2308ZM36.1828 10.4466C36.5167 11.4528 36.6471 12.2562 36.6471 13.2963C36.6471 14.8353 36.2398 16.1376 35.3846 17.3045L35.0018 17.8288L34.7167 17.3468C34.3828 16.7549 33.8127 16.1376 33.2914 15.7824C33.0715 15.6386 32.9005 15.4949 32.9005 15.478C32.9005 15.4526 33.0552 15.2581 33.2507 15.0467C34.1548 14.0404 35.124 12.2308 35.6045 10.6749C35.7511 10.1929 35.8977 9.79544 35.9222 9.79544C35.9466 9.79544 36.0688 10.0914 36.1828 10.4466ZM32.0208 16.628C32.9249 17.0085 33.7882 18.0994 33.9267 19.0211C34 19.5285 34.171 19.8498 34.391 19.9005C34.4887 19.9174 35.1647 19.9766 35.8896 20.0274C38.4634 20.1965 40.4914 20.7462 41.3548 21.4987C41.7538 21.8539 41.7131 22.1499 41.2326 22.5135C40.2715 23.2407 38.1946 23.7904 36.0769 23.8834C34.676 23.9426 34.3828 23.9849 34.1955 24.1793C34.057 24.3231 34.0407 24.4753 34.0407 26.0059C34.0407 28.0776 33.9348 29.2699 33.6742 30.2339C33.3077 31.5447 32.5828 32.9399 31.7357 33.9293L31.3855 34.3352L30.6606 33.9039C29.781 33.3796 28.9584 33.0414 27.9729 32.8131C24.886 32.0774 21.4733 32.5256 19.1765 33.9716L18.6471 34.3098L18.3131 33.9124C17.857 33.3796 17.1403 32.2381 16.8552 31.5954C16.2281 30.1409 16.0407 28.9571 16.0407 26.3526C16.0407 23.8242 16.171 24.0102 14.2977 23.9088C11.9032 23.7819 10.0787 23.3506 8.93032 22.6234C8.08326 22.0822 8.22172 21.6002 9.40271 21.0337C10.5348 20.484 12.0905 20.1542 14.2489 20.0189C15.9267 19.909 15.9674 19.8836 16.1222 19.0718C16.3502 17.8457 17.2543 16.831 18.3946 16.5096C18.6796 16.4251 20.276 16.4081 25.1629 16.4166L31.5566 16.4335L32.0208 16.628ZM27.4434 34.1322C29.4389 34.6227 30.9294 35.536 31.5729 36.6691C31.7276 36.9312 31.7928 37.2018 31.8253 37.6162C31.8579 38.132 31.8335 38.2588 31.638 38.6816C30.7339 40.6012 27.4109 41.8696 24.0308 41.5821C19.9665 41.2439 17.295 38.9776 18.3457 36.7536C18.9158 35.5529 20.8462 34.4028 22.8824 34.0646C23.2163 34.0138 23.5502 33.9547 23.6154 33.9377C23.6805 33.9208 24.4136 33.9208 25.2443 33.9377C26.3765 33.9631 26.9222 34.0138 27.4434 34.1322Z" fill="#131313"/>
<path d="M19.3635 20.8613C18.8585 21.0304 18.5164 21.2502 18.0603 21.7067C17.6612 22.0871 17.6286 22.5352 17.9626 22.8057C18.2721 23.0593 18.5653 23.0255 18.9399 22.6958C19.4123 22.2816 19.7789 22.1125 20.235 22.1125C20.6911 22.104 21.0413 22.2647 21.53 22.6958C21.9046 23.0255 22.1979 23.0593 22.5074 22.8057C22.6703 22.6705 22.7191 22.5606 22.7191 22.3069C22.7191 22.0449 22.6621 21.9265 22.377 21.6391C21.5707 20.8275 20.3734 20.5147 19.3635 20.8613Z" fill="#131313"/>
<path d="M28.8606 20.8525C28.3393 21.047 27.6714 21.4866 27.4026 21.8163C27.142 22.1376 27.1339 22.5011 27.4026 22.7716C27.6714 23.0591 27.9972 23.0421 28.3882 22.7209C29.3492 21.9262 30.066 21.9008 30.9538 22.6364C31.1818 22.8308 31.4425 22.983 31.5239 22.983C31.923 22.983 32.2488 22.6279 32.2488 22.2052C32.2488 21.9347 31.5728 21.3091 30.9619 21.0132C30.2859 20.6835 29.4796 20.6243 28.8606 20.8525Z" fill="#131313"/>
<path d="M20.5448 36.5015C20.3086 36.7298 20.2272 37.0595 20.3493 37.3216C20.4389 37.5329 20.5774 37.6175 21.1394 37.7697C21.3919 37.8373 21.4978 37.9218 21.5874 38.1332C21.7014 38.4122 21.7095 38.4122 22.3367 38.4375L22.9638 38.4629V38.2262C22.9557 37.888 22.7683 37.3977 22.524 37.0595C22.2389 36.6706 21.7421 36.417 21.1801 36.3663C20.7973 36.3325 20.6996 36.3494 20.5448 36.5015Z" fill="#131313"/>
<path d="M28.3228 36.4419C27.9155 36.5518 27.3291 37.1013 27.1662 37.5325C27.0929 37.7269 27.0196 38.0735 27.0115 38.3018C26.9952 38.6653 27.0278 38.7499 27.2232 38.9274C27.7038 39.3501 28.3391 39.0204 28.3391 38.3441C28.3391 38.0144 28.5834 37.7861 29.0151 37.7016C29.4712 37.617 29.6341 37.431 29.6422 36.9999C29.6422 36.4335 29.1373 36.2136 28.3228 36.4419Z" fill="#131313"/>
</g>
<defs>
<clipPath id="clip0_27651_11106">
<rect width="36" height="36" fill="white" transform="translate(7 7)"/>
</clipPath>
</defs>
</svg>
