<svg aria-hidden="true" style="position: absolute; width: 0; height: 0; overflow: hidden;" version="1.1" xmlns="http://www.w3.org/2000/svg" xmlns:xlink="http://www.w3.org/1999/xlink">
<defs>
<symbol id="icon-arrow" viewBox="0 0 82 32">
<path fill="#fcfcfc" style="fill: var(--color1, #fcfcfc)" d="M81.414 17.414c0.781-0.781 0.781-2.047 0-2.828l-12.728-12.728c-0.781-0.781-2.047-0.781-2.828 0s-0.781 2.047 0 2.828l11.314 11.314-11.314 11.314c-0.781 0.781-0.781 2.047 0 2.828s2.047 0.781 2.828 0l12.728-12.728zM0 18h80v-4h-80v4z"></path>
</symbol>
<symbol id="icon-clarity_close-line" viewBox="0 0 32 32">
<path d="M17.253 15.751l7.369-7.317c0.146-0.169 0.222-0.386 0.213-0.608s-0.101-0.433-0.26-0.59c-0.158-0.157-0.37-0.249-0.594-0.258s-0.442 0.067-0.612 0.212l-7.369 7.317-7.369-7.326c-0.167-0.166-0.394-0.26-0.631-0.26s-0.464 0.093-0.631 0.26c-0.167 0.166-0.261 0.392-0.261 0.627s0.094 0.46 0.261 0.627l7.378 7.317-7.378 7.317c-0.093 0.079-0.169 0.176-0.222 0.286s-0.083 0.229-0.088 0.35 0.016 0.243 0.061 0.356c0.045 0.113 0.112 0.216 0.199 0.302s0.19 0.153 0.304 0.198c0.114 0.044 0.236 0.065 0.359 0.060s0.243-0.034 0.353-0.087 0.208-0.128 0.288-0.22l7.378-7.317 7.369 7.317c0.17 0.145 0.389 0.22 0.612 0.212s0.436-0.101 0.594-0.258c0.158-0.157 0.251-0.368 0.26-0.59s-0.067-0.439-0.213-0.608l-7.369-7.317z"></path>
</symbol>
<symbol id="icon-cow" viewBox="0 0 32 32">
<path fill="#f8d24e" style="fill: var(--color2, #f8d24e)" d="M16 0c8.837 0 16 7.163 16 16s-7.163 16-16 16c-8.837 0-16-7.163-16-16s7.163-16 16-16z"></path>
<path fill="#131313" style="fill: var(--color3, #131313)" d="M8.921 4.618c-0.188 0.162-0.725 1.283-0.917 1.894-0.229 0.758-0.308 1.326-0.276 2.111 0.042 1.12 0.323 1.97 0.944 2.857 0.162 0.233 0.292 0.433 0.292 0.449 0 0.011-0.099 0.022-0.224 0.022-0.537 0-1.543 0.179-2.314 0.411-1.225 0.368-1.944 1.012-1.944 1.732 0 0.254 0.229 0.687 0.474 0.909 0.474 0.428 1.512 0.833 2.627 1.028 0.386 0.070 1.532 0.189 1.788 0.195 0.047 0 0.063 0.249 0.063 1.066 0 0.704 0.026 1.25 0.078 1.586 0.188 1.201 0.772 2.473 1.543 3.372l0.266 0.308-0.177 0.287c-0.261 0.406-0.36 0.714-0.391 1.174-0.078 1.104 0.61 2.084 1.939 2.771 2.533 1.315 6.469 0.801 7.944-1.039 0.719-0.898 0.803-1.927 0.235-2.858l-0.177-0.287 0.318-0.384c0.594-0.714 0.98-1.429 1.272-2.333 0.245-0.768 0.339-1.51 0.339-2.684 0-0.536 0.016-0.98 0.042-0.98 0.24-0.005 1.392-0.13 1.757-0.195 1.121-0.195 2.137-0.595 2.627-1.028 0.245-0.222 0.474-0.655 0.474-0.909 0-0.801-0.813-1.45-2.325-1.84-0.495-0.13-1.428-0.287-1.882-0.314l-0.214-0.016 0.235-0.325c0.292-0.395 0.657-1.164 0.798-1.667 0.396-1.456 0.151-3.15-0.698-4.768-0.355-0.671-0.599-0.828-0.886-0.563-0.11 0.103-0.156 0.244-0.261 0.752-0.323 1.618-0.923 2.901-1.798 3.848l-0.386 0.422h-8.246l-0.344-0.373c-0.855-0.942-1.475-2.273-1.798-3.897-0.104-0.509-0.151-0.649-0.261-0.752-0.172-0.157-0.339-0.152-0.532 0.016zM9.588 7.828c0.276 0.606 0.62 1.174 1.027 1.699l0.323 0.417-0.339 0.254c-0.318 0.244-0.615 0.59-0.844 0.985l-0.099 0.179-0.25-0.341c-0.855-1.18-1.069-2.625-0.615-4.124 0.219-0.725 0.214-0.72 0.412-0.092 0.094 0.303 0.271 0.763 0.386 1.023zM23.157 6.686c0.214 0.644 0.297 1.158 0.297 1.824 0 0.985-0.261 1.818-0.808 2.565l-0.245 0.336-0.182-0.308c-0.214-0.379-0.579-0.774-0.912-1.001-0.141-0.092-0.25-0.184-0.25-0.195 0-0.016 0.099-0.141 0.224-0.276 0.579-0.644 1.199-1.802 1.506-2.798 0.094-0.308 0.188-0.563 0.203-0.563s0.094 0.189 0.167 0.417zM20.493 10.642c0.579 0.244 1.131 0.942 1.22 1.532 0.047 0.325 0.156 0.53 0.297 0.563 0.063 0.011 0.495 0.049 0.959 0.081 1.647 0.108 2.945 0.46 3.498 0.942 0.255 0.227 0.229 0.417-0.078 0.649-0.615 0.465-1.944 0.817-3.3 0.877-0.897 0.038-1.084 0.065-1.204 0.189-0.089 0.092-0.099 0.189-0.099 1.169 0 1.326-0.068 2.089-0.235 2.706-0.235 0.839-0.698 1.732-1.241 2.365l-0.224 0.26-0.464-0.276c-0.563-0.336-1.089-0.552-1.72-0.698-1.976-0.471-4.16-0.184-5.63 0.741l-0.339 0.216-0.214-0.254c-0.292-0.341-0.751-1.072-0.933-1.483-0.401-0.931-0.521-1.689-0.521-3.355 0-1.618 0.083-1.499-1.116-1.564-1.532-0.081-2.7-0.357-3.435-0.823-0.542-0.346-0.454-0.655 0.302-1.017 0.725-0.352 1.72-0.563 3.102-0.649 1.074-0.070 1.1-0.087 1.199-0.606 0.146-0.785 0.725-1.434 1.454-1.64 0.182-0.054 1.204-0.065 4.332-0.060l4.092 0.011 0.297 0.124zM17.564 21.845c1.277 0.314 2.231 0.898 2.643 1.624 0.099 0.168 0.141 0.341 0.162 0.606 0.021 0.33 0.005 0.411-0.12 0.682-0.579 1.229-2.705 2.040-4.869 1.856-2.601-0.216-4.311-1.667-3.638-3.090 0.365-0.768 1.6-1.505 2.903-1.721 0.214-0.032 0.427-0.070 0.469-0.081s0.511-0.011 1.042 0c0.725 0.016 1.074 0.049 1.407 0.124z"></path>
<path fill="#131313" style="fill: var(--color3, #131313)" d="M12.393 13.351c-0.323 0.108-0.542 0.249-0.834 0.541-0.255 0.243-0.276 0.53-0.063 0.703 0.198 0.162 0.386 0.141 0.625-0.070 0.302-0.265 0.537-0.373 0.829-0.373 0.292-0.005 0.516 0.097 0.829 0.373 0.24 0.211 0.427 0.233 0.626 0.070 0.104-0.087 0.136-0.157 0.136-0.319 0-0.168-0.036-0.243-0.219-0.427-0.516-0.519-1.282-0.72-1.929-0.498z"></path>
<path fill="#131313" style="fill: var(--color3, #131313)" d="M18.471 13.346c-0.334 0.124-0.761 0.406-0.933 0.617-0.167 0.206-0.172 0.438 0 0.611 0.172 0.184 0.381 0.173 0.631-0.032 0.615-0.509 1.074-0.525 1.642-0.054 0.146 0.124 0.313 0.222 0.365 0.222 0.255 0 0.464-0.227 0.464-0.498 0-0.173-0.433-0.573-0.824-0.763-0.433-0.211-0.949-0.249-1.345-0.103z"></path>
<path fill="#131313" style="fill: var(--color3, #131313)" d="M13.149 23.361c-0.151 0.146-0.203 0.357-0.125 0.525 0.057 0.135 0.146 0.189 0.506 0.287 0.162 0.043 0.229 0.097 0.287 0.233 0.073 0.179 0.078 0.179 0.48 0.195l0.401 0.016v-0.151c-0.005-0.216-0.125-0.53-0.281-0.747-0.182-0.249-0.5-0.411-0.86-0.444-0.245-0.022-0.308-0.011-0.407 0.087z"></path>
<path fill="#131313" style="fill: var(--color3, #131313)" d="M18.127 23.323c-0.261 0.070-0.636 0.422-0.74 0.698-0.047 0.124-0.094 0.346-0.099 0.492-0.010 0.233 0.010 0.287 0.136 0.4 0.308 0.271 0.714 0.060 0.714-0.373 0-0.211 0.156-0.357 0.433-0.411 0.292-0.054 0.396-0.173 0.401-0.449 0-0.363-0.323-0.503-0.844-0.357z"></path>
</symbol>
<symbol id="icon-desktopLine" viewBox="0 0 100 32">
<path fill="#f8d24e" style="fill: var(--color2, #f8d24e)" d="M45.81 25.797c0 0.287-0.219 0.52-0.488 0.52s-0.488-0.233-0.488-0.52c0-0.287 0.219-0.52 0.488-0.52s0.488 0.233 0.488 0.52z"></path>
<path fill="#f8d24e" style="fill: var(--color2, #f8d24e)" d="M46.949 25.104c0 0.287-0.219 0.52-0.488 0.52s-0.488-0.233-0.488-0.52c0-0.287 0.219-0.52 0.488-0.52s0.488 0.233 0.488 0.52z"></path>
<path fill="#f8d24e" style="fill: var(--color2, #f8d24e)" d="M44.915 27.705c0 0.287-0.219 0.52-0.488 0.52s-0.488-0.233-0.488-0.52c0-0.287 0.219-0.52 0.488-0.52s0.488 0.233 0.488 0.52z"></path>
<path fill="#f8d24e" style="fill: var(--color2, #f8d24e)" d="M45.972 27.011c0 0.287-0.219 0.52-0.488 0.52s-0.488-0.233-0.488-0.52c0-0.287 0.219-0.52 0.488-0.52s0.488 0.233 0.488 0.52z"></path>
<path fill="#f8d24e" style="fill: var(--color2, #f8d24e)" d="M47.193 26.231c0 0.287-0.219 0.52-0.488 0.52s-0.488-0.233-0.488-0.52c0-0.287 0.219-0.52 0.488-0.52s0.488 0.233 0.488 0.52z"></path>
<path fill="#f8d24e" style="fill: var(--color2, #f8d24e)" d="M48.332 25.537c0 0.287-0.219 0.52-0.488 0.52s-0.488-0.233-0.488-0.52c0-0.287 0.219-0.52 0.488-0.52s0.488 0.233 0.488 0.52z"></path>
<path fill="#f8d24e" style="fill: var(--color2, #f8d24e)" d="M46.705 27.792c0 0.287-0.219 0.52-0.488 0.52s-0.488-0.233-0.488-0.52c0-0.287 0.219-0.52 0.488-0.52s0.488 0.233 0.488 0.52z"></path>
<path fill="#f8d24e" style="fill: var(--color2, #f8d24e)" d="M47.762 27.098c0 0.287-0.219 0.52-0.488 0.52s-0.488-0.233-0.488-0.52c0-0.287 0.219-0.52 0.488-0.52s0.488 0.233 0.488 0.52z"></path>
<path fill="#f8d24e" style="fill: var(--color2, #f8d24e)" d="M48.983 26.318c0 0.287-0.219 0.52-0.488 0.52s-0.488-0.233-0.488-0.52c0-0.287 0.219-0.52 0.488-0.52s0.488 0.233 0.488 0.52z"></path>
<path fill="#f8d24e" style="fill: var(--color2, #f8d24e)" d="M50.122 25.624c0 0.287-0.219 0.52-0.488 0.52s-0.488-0.233-0.488-0.52c0-0.287 0.219-0.52 0.488-0.52s0.488 0.233 0.488 0.52z"></path>
<path fill="#f8d24e" style="fill: var(--color2, #f8d24e)" d="M48.82 27.792c0 0.287-0.219 0.52-0.488 0.52s-0.488-0.233-0.488-0.52c0-0.287 0.219-0.52 0.488-0.52s0.488 0.233 0.488 0.52z"></path>
<path fill="#f8d24e" style="fill: var(--color2, #f8d24e)" d="M49.878 27.098c0 0.287-0.219 0.52-0.488 0.52s-0.488-0.233-0.488-0.52c0-0.287 0.219-0.52 0.488-0.52s0.488 0.233 0.488 0.52z"></path>
<path fill="#f8d24e" style="fill: var(--color2, #f8d24e)" d="M51.098 26.318c0 0.287-0.219 0.52-0.488 0.52s-0.488-0.233-0.488-0.52c0-0.287 0.219-0.52 0.488-0.52s0.488 0.233 0.488 0.52z"></path>
<path fill="#f8d24e" style="fill: var(--color2, #f8d24e)" d="M52.238 25.624c0 0.287-0.219 0.52-0.488 0.52s-0.488-0.233-0.488-0.52c0-0.287 0.219-0.52 0.488-0.52s0.488 0.233 0.488 0.52z"></path>
<path fill="#f8d24e" style="fill: var(--color2, #f8d24e)" d="M50.61 27.705c0 0.287-0.219 0.52-0.488 0.52s-0.488-0.233-0.488-0.52c0-0.287 0.219-0.52 0.488-0.52s0.488 0.233 0.488 0.52z"></path>
<path fill="#f8d24e" style="fill: var(--color2, #f8d24e)" d="M51.668 27.011c0 0.287-0.219 0.52-0.488 0.52s-0.488-0.233-0.488-0.52c0-0.287 0.219-0.52 0.488-0.52s0.488 0.233 0.488 0.52z"></path>
<path fill="#f8d24e" style="fill: var(--color2, #f8d24e)" d="M52.889 26.231c0 0.287-0.219 0.52-0.488 0.52s-0.488-0.233-0.488-0.52c0-0.287 0.219-0.52 0.488-0.52s0.488 0.233 0.488 0.52z"></path>
<path fill="#f8d24e" style="fill: var(--color2, #f8d24e)" d="M54.028 25.537c0 0.287-0.219 0.52-0.488 0.52s-0.488-0.233-0.488-0.52c0-0.287 0.219-0.52 0.488-0.52s0.488 0.233 0.488 0.52z"></path>
<path fill="#f8d24e" style="fill: var(--color2, #f8d24e)" d="M52.644 27.618c0 0.287-0.219 0.52-0.488 0.52s-0.488-0.233-0.488-0.52c0-0.287 0.219-0.52 0.488-0.52s0.488 0.233 0.488 0.52z"></path>
<path fill="#f8d24e" style="fill: var(--color2, #f8d24e)" d="M53.702 26.925c0 0.287-0.219 0.52-0.488 0.52s-0.488-0.233-0.488-0.52c0-0.287 0.219-0.52 0.488-0.52s0.488 0.233 0.488 0.52z"></path>
<path fill="#f8d24e" style="fill: var(--color2, #f8d24e)" d="M54.923 26.144c0 0.287-0.219 0.52-0.488 0.52s-0.488-0.233-0.488-0.52c0-0.287 0.219-0.52 0.488-0.52s0.488 0.233 0.488 0.52z"></path>
<path fill="#f8d24e" style="fill: var(--color2, #f8d24e)" d="M56.062 25.45c0 0.287-0.219 0.52-0.488 0.52s-0.488-0.233-0.488-0.52c0-0.287 0.219-0.52 0.488-0.52s0.488 0.233 0.488 0.52z"></path>
<path fill="#f8d24e" style="fill: var(--color2, #f8d24e)" d="M54.516 25.364c0 0.287-0.219 0.52-0.488 0.52s-0.488-0.233-0.488-0.52c0-0.287 0.219-0.52 0.488-0.52s0.488 0.233 0.488 0.52z"></path>
<path fill="#f8d24e" style="fill: var(--color2, #f8d24e)" d="M55.574 24.67c0 0.287-0.219 0.52-0.488 0.52s-0.488-0.233-0.488-0.52c0-0.287 0.219-0.52 0.488-0.52s0.488 0.233 0.488 0.52z"></path>
<path fill="#f8d24e" style="fill: var(--color2, #f8d24e)" d="M56.794 23.889c0 0.287-0.219 0.52-0.488 0.52s-0.488-0.233-0.488-0.52c0-0.287 0.219-0.52 0.488-0.52s0.488 0.233 0.488 0.52z"></path>
<path fill="#f8d24e" style="fill: var(--color2, #f8d24e)" d="M57.933 23.196c0 0.287-0.219 0.52-0.488 0.52s-0.488-0.233-0.488-0.52c0-0.287 0.219-0.52 0.488-0.52s0.488 0.233 0.488 0.52z"></path>
</symbol>
<symbol id="icon-eclipseminimal" viewBox="0 0 30 32">
<path fill="#d9d9d9" style="fill: var(--color4, #d9d9d9)" d="M29.538 14.773c0 8.159-6.612 14.773-14.769 14.773s-14.769-6.614-14.769-14.773c0-8.159 6.612-14.773 14.769-14.773s14.769 6.614 14.769 14.773z"></path>
</symbol>
<symbol id="icon-ellipse10" viewBox="0 0 32 32">
<path fill="#d9d9d9" style="fill: var(--color4, #d9d9d9)" d="M29.333 15.333c0 7.364-5.97 13.333-13.333 13.333s-13.333-5.97-13.333-13.333c0-7.364 5.97-13.333 13.333-13.333s13.333 5.97 13.333 13.333z"></path>
<path fill="#9cbe8f" style="fill: var(--color5, #9cbe8f)" opacity="0.7" d="M29.333 15.333c0 7.364-5.97 13.333-13.333 13.333s-13.333-5.97-13.333-13.333c0-7.364 5.97-13.333 13.333-13.333s13.333 5.97 13.333 13.333z"></path>
</symbol>
<symbol id="icon-ep_close" viewBox="0 0 32 32">
<path fill="#fcfcfc" style="fill: var(--color1, #fcfcfc)" d="M23.884 6.706l-7.884 7.884-7.884-7.884c-0.19-0.174-0.439-0.267-0.696-0.261s-0.502 0.11-0.684 0.292c-0.182 0.182-0.286 0.427-0.292 0.684s0.088 0.506 0.261 0.696l7.88 7.884-7.882 7.882c-0.096 0.092-0.173 0.202-0.226 0.324s-0.081 0.253-0.083 0.386 0.023 0.265 0.073 0.388c0.050 0.123 0.124 0.235 0.218 0.329s0.206 0.169 0.329 0.219 0.255 0.075 0.388 0.074c0.133-0.002 0.264-0.029 0.386-0.082s0.232-0.13 0.324-0.226l7.886-7.882 7.884 7.884c0.19 0.174 0.439 0.267 0.696 0.262s0.502-0.11 0.684-0.292c0.182-0.182 0.286-0.427 0.292-0.684s-0.088-0.506-0.262-0.696l-7.884-7.884 7.884-7.886c0.096-0.092 0.173-0.202 0.226-0.324s0.081-0.253 0.083-0.386c0.002-0.133-0.023-0.265-0.073-0.388s-0.124-0.235-0.218-0.329c-0.094-0.094-0.206-0.169-0.329-0.219s-0.255-0.075-0.388-0.074-0.264 0.029-0.386 0.082c-0.122 0.053-0.232 0.13-0.324 0.226v0.002z"></path>
</symbol>
<symbol id="icon-eva_menu-fill" viewBox="0 0 32 32">
<path fill="#fff" style="fill: var(--color6, #fff)" d="M26.733 14.667h-21.467c-0.7 0-1.267 0.567-1.267 1.267v0.133c0 0.7 0.567 1.267 1.267 1.267h21.467c0.7 0 1.267-0.567 1.267-1.267v-0.133c0-0.7-0.567-1.267-1.267-1.267z"></path>
<path fill="#fff" style="fill: var(--color6, #fff)" d="M26.733 21.333h-21.467c-0.7 0-1.267 0.567-1.267 1.267v0.133c0 0.7 0.567 1.267 1.267 1.267h21.467c0.7 0 1.267-0.567 1.267-1.267v-0.133c0-0.7-0.567-1.267-1.267-1.267z"></path>
<path fill="#fff" style="fill: var(--color6, #fff)" d="M26.733 8h-21.467c-0.7 0-1.267 0.567-1.267 1.267v0.133c0 0.7 0.567 1.267 1.267 1.267h21.467c0.7 0 1.267-0.567 1.267-1.267v-0.133c0-0.7-0.567-1.267-1.267-1.267z"></path>
</symbol>
<symbol xmlns="http://www.w3.org/2000/svg" viewBox="0 0 11 22" id="icon-facebook">
<path d="M9.72348 10.9804H6.95018V21.2001H2.74839V10.9804H0.75V7.38881H2.74839V5.06464C2.74839 3.40261 3.53328 0.800049 6.98758 0.800049L10.1 0.813146V4.2994H7.84174C7.47132 4.2994 6.95046 4.48555 6.95046 5.27839V7.39216H10.0906L9.72348 10.9804Z"></path>
</symbol>
<symbol xmlns="http://www.w3.org/2000/svg" viewBox="0 0 20 20" id="icon-github">
<path d="M10 0C4.50745 0 0 4.50745 0 10C0 14.687 3.28888 18.9447 7.65625 20V16.6916C7.22351 16.7863 6.82526 16.7891 6.38474 16.6592C5.79376 16.4848 5.31357 16.0912 4.95712 15.4909C4.72992 15.1076 4.32724 14.6919 3.90717 14.7224L3.80417 13.5551C4.71252 13.4773 5.49835 14.1086 5.96481 14.8923C6.17203 15.2408 6.41052 15.4451 6.71661 15.5354C7.01248 15.6226 7.33017 15.5807 7.70035 15.45C7.79327 14.7089 8.13278 14.4315 8.38928 14.0408V14.0402C5.78461 13.6517 4.74655 12.2699 4.33456 11.1792C3.7886 9.73099 4.08157 7.92175 5.047 6.77841C5.06577 6.75613 5.09964 6.69785 5.08652 6.6571C4.64386 5.31998 5.18326 4.21387 5.20309 4.09653C5.71396 4.24759 5.79697 3.94455 7.42218 4.93195L7.70309 5.10071C7.82059 5.17075 7.78366 5.13077 7.90115 5.12192C8.57971 4.93759 9.29504 4.83582 9.99985 4.82666C10.71 4.83582 11.4207 4.93759 12.1274 5.12939L12.2183 5.13855C12.2104 5.13733 12.243 5.13275 12.2978 5.1001C14.328 3.87039 14.2551 4.27231 14.7995 4.09531C14.8192 4.2128 15.3514 5.33691 14.9135 6.6571C14.8544 6.83899 16.6736 8.50479 15.6653 11.1787C15.2533 12.2699 14.2154 13.6517 11.6107 14.0402V14.0408C11.9446 14.5497 12.3457 14.8204 12.3436 15.8702V20C16.7111 18.9447 19.9998 14.687 19.9998 10C20 4.50745 15.4926 0 10 0V0Z"></path>
</symbol>
<symbol id="icon-home-pic4" viewBox="0 0 31 32">
<path fill="#d9d9d9" style="fill: var(--color4, #d9d9d9)" d="M15.185 1.28c7.873 0 14.255 6.382 14.255 14.255s-6.382 14.255-14.255 14.255c-7.873 0-14.255-6.382-14.255-14.255s6.382-14.255 14.255-14.255z"></path>
<path fill="#f8d24e" style="fill: var(--color2, #f8d24e)" opacity="0.7" d="M15.185 1.28c7.873 0 14.255 6.382 14.255 14.255s-6.382 14.255-14.255 14.255c-7.873 0-14.255-6.382-14.255-14.255s6.382-14.255 14.255-14.255z"></path>
</symbol>
<symbol id="icon-icecrema" viewBox="0 0 31 32">
<path fill="#f8d24e" style="fill: var(--color2, #f8d24e)" d="M15.686 0c8.663 0 15.686 7.023 15.686 15.686v0.008c0 8.663-7.023 15.686-15.686 15.686s-15.686-7.023-15.686-15.686v-0.008c0-8.663 7.023-15.686 15.686-15.686z"></path>
<path fill="#000" style="fill: var(--color8, #000)" d="M15.763 4.468c0.057 0.151 0.17 0.884 0.17 1.111 0 0.562-0.208 1.087-0.591 1.498-0.317 0.34-0.633 0.529-1.394 0.836-0.846 0.345-1.196 0.553-1.592 0.945-0.402 0.402-0.638 0.841-0.723 1.356-0.095 0.562 0 0.959 0.288 1.186l0.146 0.113-0.232 0.146c-0.468 0.307-1.318 1.030-1.465 1.252-0.284 0.425-0.255 0.822 0.066 0.983l0.151 0.076-0.17 0.161c-0.255 0.241-0.307 0.406-0.269 0.841 0.024 0.288 0.014 0.444-0.052 0.68-0.080 0.307-0.080 0.312 0.024 0.529 0.104 0.213 0.397 0.482 0.662 0.595 0.128 0.057 0.132 0.076 0.161 0.51 0.014 0.25 0.038 1.049 0.057 1.777 0.014 0.728 0.047 1.394 0.076 1.474 0.024 0.085 0.113 0.198 0.194 0.255 0.274 0.189 0.463 0.392 0.586 0.629 0.137 0.269 0.288 0.931 0.747 3.218l0.321 1.607 0.199 0.189c0.378 0.373 1.101 0.543 2.292 0.543 1.196 0 1.909-0.165 2.287-0.539l0.203-0.194 0.293-1.488c0.647-3.256 0.704-3.436 1.21-3.837 0.156-0.128 0.307-0.284 0.335-0.354 0.033-0.080 0.066-0.699 0.090-1.635 0.019-0.832 0.047-1.654 0.066-1.829l0.028-0.317 0.307-0.232c0.387-0.298 0.539-0.567 0.539-0.983-0.005-0.491-0.326-1.030-0.912-1.512l-0.279-0.227 0.137-0.194c0.572-0.789 0.213-1.881-0.851-2.608l-0.321-0.222 0.118-0.123c0.524-0.562 0.61-2.24 0.17-3.407-0.265-0.695-0.87-1.451-1.611-2.008-0.364-0.274-1.366-0.879-1.456-0.879-0.019 0-0.019 0.033-0.005 0.076zM17.124 6.117c0.25 0.246 0.553 0.581 0.671 0.751 0.704 0.983 0.884 2.216 0.458 3.124-0.17 0.369-0.68 0.917-1.153 1.243-0.723 0.501-2.349 1.342-3.483 1.805-1.824 0.742-2.883 0.884-3.005 0.397-0.047-0.184 0.090-0.331 0.671-0.718 0.525-0.359 2.878-2.108 2.92-2.178 0.014-0.019-0.227 0.090-0.529 0.241-1.025 0.52-1.512 0.421-1.489-0.302 0.014-0.525 0.392-1.12 0.917-1.46 0.132-0.085 0.543-0.274 0.921-0.425 1.243-0.501 1.621-0.756 2.041-1.385 0.25-0.373 0.525-1.063 0.543-1.356 0.005-0.104 0.024-0.184 0.038-0.184s0.227 0.203 0.477 0.449zM18.414 11.485c0.345 0.194 0.704 0.525 0.86 0.784 0.274 0.468 0.132 0.936-0.458 1.531-0.643 0.652-1.739 1.276-2.944 1.673-1.111 0.364-2.174 0.534-3.695 0.586l-0.945 0.033 0.614 0.038c0.794 0.052 2.33 0.005 2.925-0.090 1.583-0.25 2.93-0.751 3.894-1.441 0.217-0.156 0.444-0.284 0.506-0.284 0.156 0 0.836 0.652 0.974 0.926 0.076 0.156 0.095 0.269 0.080 0.421-0.071 0.629-0.836 0.964-2.684 1.186-2.259 0.269-5.212 0.005-6.474-0.576-0.595-0.274-0.695-0.43-0.543-0.846 0.047-0.132 0.057-0.288 0.038-0.51-0.024-0.293-0.019-0.331 0.085-0.439 0.236-0.255 0.633-0.402 2.089-0.77 0.51-0.132 1.205-0.34 1.536-0.463 0.803-0.293 2.311-1.054 3.010-1.522 0.657-0.435 0.751-0.454 1.134-0.236zM12.138 17.269c0.992 0.288 1.871 0.373 3.506 0.34 1.229-0.024 1.985-0.099 3.076-0.293 0.222-0.038 0.416-0.071 0.44-0.071 0.052 0 0.038 1.815-0.019 2.292-0.061 0.506-0.198 0.898-0.345 0.992-0.151 0.099-0.907 0.203-1.919 0.26-2.075 0.113-4.206 0-4.867-0.265-0.359-0.146-0.397-0.335-0.402-2.089 0-1.167 0.009-1.328 0.071-1.304 0.038 0.014 0.246 0.076 0.458 0.137zM13.258 21.286c0.34 0.043 0.709 0.085 0.822 0.099l0.203 0.024-0.18 0.198c-0.232 0.25-0.586 0.751-0.714 1.007-0.146 0.293-0.194 0.312-0.411 0.194l-0.184-0.104-0.104-0.643c-0.057-0.35-0.118-0.685-0.132-0.742-0.043-0.123-0.085-0.123 0.699-0.033zM18.296 21.234c0 0.009-0.024 0.132-0.047 0.269-0.028 0.142-0.146 0.912-0.265 1.715-0.241 1.678-0.402 2.467-0.548 2.731-0.203 0.354-0.69 0.562-1.479 0.628-0.307 0.024-1.233-0.038-1.285-0.085-0.038-0.043 0.775-1.049 0.903-1.115 0.118-0.066 0.151-0.057 0.553 0.151 0.468 0.246 0.704 0.283 0.704 0.128s-0.123-0.307-0.425-0.515c-0.279-0.198-0.378-0.312-0.378-0.444 0-0.038 0.137-0.25 0.302-0.473s0.406-0.576 0.529-0.789l0.232-0.383 0.213 0.028c0.43 0.061 0.543 0.057 0.529-0.038-0.009-0.047-0.090-0.184-0.18-0.298-0.090-0.118-0.161-0.236-0.161-0.26 0-0.090 0.439-0.917 0.581-1.092 0.123-0.151 0.222-0.227 0.222-0.161zM15.342 21.612c0.236 0.156 1.125 0.926 1.181 1.021 0.024 0.043-0.888 1.47-1.068 1.673-0.019 0.024-0.118-0.024-0.217-0.099-0.099-0.080-0.468-0.335-0.822-0.567l-0.638-0.421 0.383-0.647c0.68-1.139 0.666-1.12 0.813-1.12 0.076 0 0.241 0.071 0.369 0.161zM17.133 21.782c-0.165 0.203-0.302 0.331-0.359 0.331-0.123 0-0.321-0.109-0.657-0.354l-0.279-0.203 0.558-0.033c0.302-0.014 0.595-0.033 0.647-0.043 0.378-0.061 0.378-0.057 0.090 0.302zM13.561 24.055c0.435 0.17 1.172 0.572 1.385 0.751 0.151 0.123 0.151 0.132 0.090 0.283-0.038 0.085-0.165 0.312-0.293 0.506-0.123 0.189-0.265 0.425-0.317 0.525-0.151 0.293-0.198 0.317-0.51 0.232-0.335-0.099-0.515-0.269-0.61-0.576-0.128-0.43-0.331-1.645-0.307-1.834 0.009-0.071 0.208-0.028 0.562 0.113z"></path>
</symbol>
<symbol id="icon-linemobile" viewBox="0 0 205 32">
<path fill="#f8d24e" style="fill: var(--color2, #f8d24e)" d="M156.54 29.616c0 0.982-0.745 1.778-1.664 1.778s-1.664-0.796-1.664-1.778c0-0.982 0.745-1.778 1.664-1.778s1.664 0.796 1.664 1.778z"></path>
<path fill="#f8d24e" style="fill: var(--color2, #f8d24e)" d="M160.146 27.245c0 0.982-0.745 1.778-1.664 1.778s-1.664-0.796-1.664-1.778c0-0.982 0.745-1.778 1.664-1.778s1.664 0.796 1.664 1.778z"></path>
<path fill="#f8d24e" style="fill: var(--color2, #f8d24e)" d="M164.305 24.578c0 0.982-0.745 1.778-1.664 1.778s-1.664-0.796-1.664-1.778c0-0.982 0.745-1.778 1.664-1.778s1.664 0.796 1.664 1.778z"></path>
<path fill="#f8d24e" style="fill: var(--color2, #f8d24e)" d="M168.189 22.206c0 0.982-0.745 1.778-1.664 1.778s-1.664-0.796-1.664-1.778c0-0.982 0.745-1.778 1.664-1.778s1.664 0.796 1.664 1.778z"></path>
<path fill="#f8d24e" style="fill: var(--color2, #f8d24e)" d="M165.969 28.431c0 0.982-0.745 1.778-1.664 1.778s-1.664-0.796-1.664-1.778c0-0.982 0.745-1.778 1.664-1.778s1.664 0.796 1.664 1.778z"></path>
<path fill="#f8d24e" style="fill: var(--color2, #f8d24e)" d="M169.575 26.060c0 0.982-0.745 1.778-1.664 1.778s-1.664-0.796-1.664-1.778c0-0.982 0.745-1.778 1.664-1.778s1.664 0.796 1.664 1.778z"></path>
<path fill="#f8d24e" style="fill: var(--color2, #f8d24e)" d="M173.735 23.392c0 0.982-0.745 1.778-1.664 1.778s-1.664-0.796-1.664-1.778c0-0.982 0.745-1.778 1.664-1.778s1.664 0.796 1.664 1.778z"></path>
<path fill="#f8d24e" style="fill: var(--color2, #f8d24e)" d="M177.619 21.021c0 0.982-0.745 1.778-1.664 1.778s-1.664-0.796-1.664-1.778c0-0.982 0.745-1.778 1.664-1.778s1.664 0.796 1.664 1.778z"></path>
<path fill="#f8d24e" style="fill: var(--color2, #f8d24e)" d="M174.014 27.542c0 0.982-0.745 1.778-1.664 1.778s-1.664-0.796-1.664-1.778c0-0.982 0.745-1.778 1.664-1.778s1.664 0.796 1.664 1.778z"></path>
<path fill="#f8d24e" style="fill: var(--color2, #f8d24e)" d="M177.619 25.171c0 0.982-0.745 1.778-1.664 1.778s-1.664-0.796-1.664-1.778c0-0.982 0.745-1.778 1.664-1.778s1.664 0.796 1.664 1.778z"></path>
<path fill="#f8d24e" style="fill: var(--color2, #f8d24e)" d="M181.779 22.503c0 0.982-0.745 1.778-1.664 1.778s-1.664-0.796-1.664-1.778c0-0.982 0.745-1.778 1.664-1.778s1.664 0.796 1.664 1.778z"></path>
<path fill="#f8d24e" style="fill: var(--color2, #f8d24e)" d="M185.662 20.132c0 0.982-0.745 1.778-1.664 1.778s-1.664-0.796-1.664-1.778c0-0.982 0.745-1.778 1.664-1.778s1.664 0.796 1.664 1.778z"></path>
<path fill="#f8d24e" style="fill: var(--color2, #f8d24e)" d="M181.778 26.356c0 0.982-0.745 1.778-1.664 1.778s-1.664-0.796-1.664-1.778c0-0.982 0.745-1.778 1.664-1.778s1.664 0.796 1.664 1.778z"></path>
<path fill="#f8d24e" style="fill: var(--color2, #f8d24e)" d="M185.383 23.985c0 0.982-0.745 1.778-1.664 1.778s-1.664-0.796-1.664-1.778c0-0.982 0.745-1.778 1.664-1.778s1.664 0.796 1.664 1.778z"></path>
<path fill="#f8d24e" style="fill: var(--color2, #f8d24e)" d="M189.543 21.318c0 0.982-0.745 1.778-1.664 1.778s-1.664-0.796-1.664-1.778c0-0.982 0.745-1.778 1.664-1.778s1.664 0.796 1.664 1.778z"></path>
<path fill="#f8d24e" style="fill: var(--color2, #f8d24e)" d="M193.427 18.947c0 0.982-0.745 1.778-1.664 1.778s-1.664-0.796-1.664-1.778c0-0.982 0.745-1.778 1.664-1.778s1.664 0.796 1.664 1.778z"></path>
<path fill="#f8d24e" style="fill: var(--color2, #f8d24e)" d="M184.276 29.616c0 0.982-0.745 1.778-1.664 1.778s-1.664-0.796-1.664-1.778c0-0.982 0.745-1.778 1.664-1.778s1.664 0.796 1.664 1.778z"></path>
<path fill="#f8d24e" style="fill: var(--color2, #f8d24e)" d="M187.882 27.245c0 0.982-0.745 1.778-1.664 1.778s-1.664-0.796-1.664-1.778c0-0.982 0.745-1.778 1.664-1.778s1.664 0.796 1.664 1.778z"></path>
<path fill="#f8d24e" style="fill: var(--color2, #f8d24e)" d="M192.874 29.913c0 0.982-0.745 1.778-1.664 1.778s-1.664-0.796-1.664-1.778c0-0.982 0.745-1.778 1.664-1.778s1.664 0.796 1.664 1.778z"></path>
<path fill="#f8d24e" style="fill: var(--color2, #f8d24e)" d="M192.042 24.578c0 0.982-0.745 1.778-1.664 1.778s-1.664-0.796-1.664-1.778c0-0.982 0.745-1.778 1.664-1.778s1.664 0.796 1.664 1.778z"></path>
<path fill="#f8d24e" style="fill: var(--color2, #f8d24e)" d="M197.034 27.245c0 0.982-0.745 1.778-1.664 1.778s-1.664-0.796-1.664-1.778c0-0.982 0.745-1.778 1.664-1.778s1.664 0.796 1.664 1.778z"></path>
<path fill="#f8d24e" style="fill: var(--color2, #f8d24e)" d="M200.918 29.913c0 0.982-0.745 1.778-1.664 1.778s-1.664-0.796-1.664-1.778c0-0.982 0.745-1.778 1.664-1.778s1.664 0.796 1.664 1.778z"></path>
<path fill="#f8d24e" style="fill: var(--color2, #f8d24e)" d="M195.925 22.206c0 0.982-0.745 1.778-1.664 1.778s-1.664-0.796-1.664-1.778c0-0.982 0.745-1.778 1.664-1.778s1.664 0.796 1.664 1.778z"></path>
<path fill="#f8d24e" style="fill: var(--color2, #f8d24e)" d="M200.918 24.874c0 0.982-0.745 1.778-1.664 1.778s-1.664-0.796-1.664-1.778c0-0.982 0.745-1.778 1.664-1.778s1.664 0.796 1.664 1.778z"></path>
<path fill="#f8d24e" style="fill: var(--color2, #f8d24e)" d="M204.801 27.542c0 0.982-0.745 1.778-1.664 1.778s-1.664-0.796-1.664-1.778c0-0.982 0.745-1.778 1.664-1.778s1.664 0.796 1.664 1.778z"></path>
<path fill="#f8d24e" style="fill: var(--color2, #f8d24e)" d="M139.622 10.055c0 0.982-0.745 1.778-1.664 1.778s-1.664-0.796-1.664-1.778c0-0.982 0.745-1.778 1.664-1.778s1.664 0.796 1.664 1.778z"></path>
<path fill="#f8d24e" style="fill: var(--color2, #f8d24e)" d="M143.227 7.684c0 0.982-0.745 1.778-1.664 1.778s-1.664-0.796-1.664-1.778c0-0.982 0.745-1.778 1.664-1.778s1.664 0.796 1.664 1.778z"></path>
<path fill="#f8d24e" style="fill: var(--color2, #f8d24e)" d="M147.388 5.016c0 0.982-0.745 1.778-1.664 1.778s-1.664-0.796-1.664-1.778c0-0.982 0.745-1.778 1.664-1.778s1.664 0.796 1.664 1.778z"></path>
<path fill="#f8d24e" style="fill: var(--color2, #f8d24e)" d="M151.27 2.645c0 0.982-0.745 1.778-1.664 1.778s-1.664-0.796-1.664-1.778c0-0.982 0.745-1.778 1.664-1.778s1.664 0.796 1.664 1.778z"></path>
<path fill="#f8d24e" style="fill: var(--color2, #f8d24e)" d="M132.687 9.758c0 0.982-0.745 1.778-1.664 1.778s-1.664-0.796-1.664-1.778c0-0.982 0.745-1.778 1.664-1.778s1.664 0.796 1.664 1.778z"></path>
<path fill="#f8d24e" style="fill: var(--color2, #f8d24e)" d="M136.293 7.387c0 0.982-0.745 1.778-1.664 1.778s-1.664-0.796-1.664-1.778c0-0.982 0.745-1.778 1.664-1.778s1.664 0.796 1.664 1.778z"></path>
<path fill="#f8d24e" style="fill: var(--color2, #f8d24e)" d="M140.453 4.72c0 0.982-0.745 1.778-1.664 1.778s-1.664-0.796-1.664-1.778c0-0.982 0.745-1.778 1.664-1.778s1.664 0.796 1.664 1.778z"></path>
<path fill="#f8d24e" style="fill: var(--color2, #f8d24e)" d="M144.335 2.349c0 0.982-0.745 1.778-1.664 1.778s-1.664-0.796-1.664-1.778c0-0.982 0.745-1.778 1.664-1.778s1.664 0.796 1.664 1.778z"></path>
<path fill="#f8d24e" style="fill: var(--color2, #f8d24e)" d="M148.219 29.616c0 0.982-0.745 1.778-1.664 1.778s-1.664-0.796-1.664-1.778c0-0.982 0.745-1.778 1.664-1.778s1.664 0.796 1.664 1.778z"></path>
<path fill="#f8d24e" style="fill: var(--color2, #f8d24e)" d="M151.824 27.245c0 0.982-0.745 1.778-1.664 1.778s-1.664-0.796-1.664-1.778c0-0.982 0.745-1.778 1.664-1.778s1.664 0.796 1.664 1.778z"></path>
<path fill="#f8d24e" style="fill: var(--color2, #f8d24e)" d="M155.984 24.578c0 0.982-0.745 1.778-1.664 1.778s-1.664-0.796-1.664-1.778c0-0.982 0.745-1.778 1.664-1.778s1.664 0.796 1.664 1.778z"></path>
<path fill="#f8d24e" style="fill: var(--color2, #f8d24e)" d="M159.868 22.206c0 0.982-0.745 1.778-1.664 1.778s-1.664-0.796-1.664-1.778c0-0.982 0.745-1.778 1.664-1.778s1.664 0.796 1.664 1.778z"></path>
<path fill="#f8d24e" style="fill: var(--color2, #f8d24e)" d="M143.781 27.838c0 0.982-0.745 1.778-1.664 1.778s-1.664-0.796-1.664-1.778c0-0.982 0.745-1.778 1.664-1.778s1.664 0.796 1.664 1.778z"></path>
<path fill="#f8d24e" style="fill: var(--color2, #f8d24e)" d="M147.387 25.467c0 0.982-0.745 1.778-1.664 1.778s-1.664-0.796-1.664-1.778c0-0.982 0.745-1.778 1.664-1.778s1.664 0.796 1.664 1.778z"></path>
<path fill="#f8d24e" style="fill: var(--color2, #f8d24e)" d="M151.547 22.8c0 0.982-0.745 1.778-1.664 1.778s-1.664-0.796-1.664-1.778c0-0.982 0.745-1.778 1.664-1.778s1.664 0.796 1.664 1.778z"></path>
<path fill="#f8d24e" style="fill: var(--color2, #f8d24e)" d="M155.43 20.429c0 0.982-0.745 1.778-1.664 1.778s-1.664-0.796-1.664-1.778c0-0.982 0.745-1.778 1.664-1.778s1.664 0.796 1.664 1.778z"></path>
<path fill="#f8d24e" style="fill: var(--color2, #f8d24e)" d="M145.446 21.614c0 0.982-0.745 1.778-1.664 1.778s-1.664-0.796-1.664-1.778c0-0.982 0.745-1.778 1.664-1.778s1.664 0.796 1.664 1.778z"></path>
<path fill="#f8d24e" style="fill: var(--color2, #f8d24e)" d="M149.051 19.243c0 0.982-0.745 1.778-1.664 1.778s-1.664-0.796-1.664-1.778c0-0.982 0.745-1.778 1.664-1.778s1.664 0.796 1.664 1.778z"></path>
<path fill="#f8d24e" style="fill: var(--color2, #f8d24e)" d="M153.212 16.575c0 0.982-0.745 1.778-1.664 1.778s-1.664-0.796-1.664-1.778c0-0.982 0.745-1.778 1.664-1.778s1.664 0.796 1.664 1.778z"></path>
<path fill="#f8d24e" style="fill: var(--color2, #f8d24e)" d="M157.095 14.204c0 0.982-0.745 1.778-1.664 1.778s-1.664-0.796-1.664-1.778c0-0.982 0.745-1.778 1.664-1.778s1.664 0.796 1.664 1.778z"></path>
<path fill="#f8d24e" style="fill: var(--color2, #f8d24e)" d="M145.446 11.24c0 0.982-0.745 1.778-1.664 1.778s-1.664-0.796-1.664-1.778c0-0.982 0.745-1.778 1.664-1.778s1.664 0.796 1.664 1.778z"></path>
<path fill="#f8d24e" style="fill: var(--color2, #f8d24e)" d="M149.051 8.869c0 0.982-0.745 1.778-1.664 1.778s-1.664-0.796-1.664-1.778c0-0.982 0.745-1.778 1.664-1.778s1.664 0.796 1.664 1.778z"></path>
<path fill="#f8d24e" style="fill: var(--color2, #f8d24e)" d="M153.212 6.202c0 0.982-0.745 1.778-1.664 1.778s-1.664-0.796-1.664-1.778c0-0.982 0.745-1.778 1.664-1.778s1.664 0.796 1.664 1.778z"></path>
<path fill="#f8d24e" style="fill: var(--color2, #f8d24e)" d="M157.095 3.831c0 0.982-0.745 1.778-1.664 1.778s-1.664-0.796-1.664-1.778c0-0.982 0.745-1.778 1.664-1.778s1.664 0.796 1.664 1.778z"></path>
<path fill="#f8d24e" style="fill: var(--color2, #f8d24e)" d="M144.613 16.872c0 0.982-0.745 1.778-1.664 1.778s-1.664-0.796-1.664-1.778c0-0.982 0.745-1.778 1.664-1.778s1.664 0.796 1.664 1.778z"></path>
<path fill="#f8d24e" style="fill: var(--color2, #f8d24e)" d="M148.22 14.501c0 0.982-0.745 1.778-1.664 1.778s-1.664-0.796-1.664-1.778c0-0.982 0.745-1.778 1.664-1.778s1.664 0.796 1.664 1.778z"></path>
<path fill="#f8d24e" style="fill: var(--color2, #f8d24e)" d="M152.379 11.833c0 0.982-0.745 1.778-1.664 1.778s-1.664-0.796-1.664-1.778c0-0.982 0.745-1.778 1.664-1.778s1.664 0.796 1.664 1.778z"></path>
<path fill="#f8d24e" style="fill: var(--color2, #f8d24e)" d="M156.262 9.462c0 0.982-0.745 1.778-1.664 1.778s-1.664-0.796-1.664-1.778c0-0.982 0.745-1.778 1.664-1.778s1.664 0.796 1.664 1.778z"></path>
<path fill="#f8d24e" style="fill: var(--color2, #f8d24e)" d="M127.14 8.276c0 0.982-0.745 1.778-1.664 1.778s-1.664-0.796-1.664-1.778c0-0.982 0.745-1.778 1.664-1.778s1.664 0.796 1.664 1.778z"></path>
<path fill="#f8d24e" style="fill: var(--color2, #f8d24e)" d="M130.746 5.905c0 0.982-0.745 1.778-1.664 1.778s-1.664-0.796-1.664-1.778c0-0.982 0.745-1.778 1.664-1.778s1.664 0.796 1.664 1.778z"></path>
<path fill="#f8d24e" style="fill: var(--color2, #f8d24e)" d="M134.906 3.238c0 0.982-0.745 1.778-1.664 1.778s-1.664-0.796-1.664-1.778c0-0.982 0.745-1.778 1.664-1.778s1.664 0.796 1.664 1.778z"></path>
<path fill="#f8d24e" style="fill: var(--color2, #f8d24e)" d="M132.964 10.055c0.919 0 1.665-0.796 1.665-1.778s-0.746-1.778-1.665-1.778c-0.919 0-1.664 0.796-1.664 1.778s0.745 1.778 1.664 1.778z"></path>
<path fill="#f8d24e" style="fill: var(--color2, #f8d24e)" d="M56.441 21.475c0.141 0.985-0.491 1.906-1.413 2.057s-1.784-0.525-1.925-1.51c-0.141-0.985 0.491-1.906 1.413-2.057s1.784 0.525 1.925 1.51z"></path>
<path fill="#f8d24e" style="fill: var(--color2, #f8d24e)" d="M59.717 18.504c0.141 0.985-0.491 1.906-1.413 2.057s-1.784-0.525-1.925-1.51c-0.141-0.985 0.491-1.906 1.413-2.057s1.784 0.525 1.925 1.51z"></path>
<path fill="#f8d24e" style="fill: var(--color2, #f8d24e)" d="M63.506 15.144c0.141 0.985-0.491 1.906-1.413 2.057s-1.784-0.525-1.925-1.51c-0.141-0.985 0.491-1.906 1.413-2.057s1.784 0.525 1.925 1.51z"></path>
<path fill="#f8d24e" style="fill: var(--color2, #f8d24e)" d="M67.060 12.128c0.141 0.985-0.491 1.906-1.413 2.057s-1.784-0.525-1.925-1.51c-0.141-0.985 0.491-1.906 1.413-2.057s1.784 0.525 1.925 1.51z"></path>
<path fill="#f8d24e" style="fill: var(--color2, #f8d24e)" d="M3.481 21.473c0 0.997-0.779 1.805-1.741 1.805s-1.741-0.808-1.741-1.805c0-0.997 0.779-1.805 1.741-1.805s1.741 0.808 1.741 1.805z"></path>
<path fill="#f8d24e" style="fill: var(--color2, #f8d24e)" d="M7.252 19.067c0 0.997-0.779 1.805-1.741 1.805s-1.741-0.808-1.741-1.805c0-0.997 0.779-1.805 1.741-1.805s1.741 0.808 1.741 1.805z"></path>
<path fill="#f8d24e" style="fill: var(--color2, #f8d24e)" d="M11.605 16.36c0 0.997-0.779 1.805-1.741 1.805s-1.741-0.808-1.741-1.805c0-0.997 0.779-1.805 1.741-1.805s1.741 0.808 1.741 1.805z"></path>
<path fill="#f8d24e" style="fill: var(--color2, #f8d24e)" d="M15.666 13.953c0 0.997-0.779 1.805-1.741 1.805s-1.741-0.808-1.741-1.805c0-0.997 0.779-1.805 1.741-1.805s1.741 0.808 1.741 1.805z"></path>
<path fill="#f8d24e" style="fill: var(--color2, #f8d24e)" d="M5.223 25.984c0 0.997-0.779 1.805-1.741 1.805s-1.741-0.808-1.741-1.805c0-0.997 0.779-1.805 1.741-1.805s1.741 0.808 1.741 1.805z"></path>
<path fill="#f8d24e" style="fill: var(--color2, #f8d24e)" d="M8.994 23.578c0 0.997-0.779 1.805-1.741 1.805s-1.741-0.808-1.741-1.805c0-0.997 0.779-1.805 1.741-1.805s1.741 0.808 1.741 1.805z"></path>
<path fill="#f8d24e" style="fill: var(--color2, #f8d24e)" d="M13.346 20.871c0 0.997-0.779 1.805-1.741 1.805s-1.741-0.808-1.741-1.805c0-0.997 0.779-1.805 1.741-1.805s1.741 0.808 1.741 1.805z"></path>
<path fill="#f8d24e" style="fill: var(--color2, #f8d24e)" d="M17.407 18.465c0 0.997-0.779 1.805-1.741 1.805s-1.741-0.808-1.741-1.805c0-0.997 0.779-1.805 1.741-1.805s1.741 0.808 1.741 1.805z"></path>
<path fill="#f8d24e" style="fill: var(--color2, #f8d24e)" d="M9.573 28.39c0 0.997-0.779 1.805-1.741 1.805s-1.741-0.808-1.741-1.805c0-0.997 0.779-1.805 1.741-1.805s1.741 0.808 1.741 1.805z"></path>
<path fill="#f8d24e" style="fill: var(--color2, #f8d24e)" d="M13.345 25.984c0 0.997-0.779 1.805-1.741 1.805s-1.741-0.808-1.741-1.805c0-0.997 0.779-1.805 1.741-1.805s1.741 0.808 1.741 1.805z"></path>
<path fill="#f8d24e" style="fill: var(--color2, #f8d24e)" d="M17.696 23.277c0 0.997-0.779 1.805-1.741 1.805s-1.741-0.808-1.741-1.805c0-0.997 0.779-1.805 1.741-1.805s1.741 0.808 1.741 1.805z"></path>
<path fill="#f8d24e" style="fill: var(--color2, #f8d24e)" d="M21.758 20.871c0 0.997-0.779 1.805-1.741 1.805s-1.741-0.808-1.741-1.805c0-0.997 0.779-1.805 1.741-1.805s1.741 0.808 1.741 1.805z"></path>
<path fill="#f8d24e" style="fill: var(--color2, #f8d24e)" d="M14.504 29.895c0 0.997-0.779 1.805-1.741 1.805s-1.741-0.808-1.741-1.805c0-0.997 0.779-1.805 1.741-1.805s1.741 0.808 1.741 1.805z"></path>
<path fill="#f8d24e" style="fill: var(--color2, #f8d24e)" d="M18.276 27.488c0 0.997-0.779 1.805-1.741 1.805s-1.741-0.808-1.741-1.805c0-0.997 0.779-1.805 1.741-1.805s1.741 0.808 1.741 1.805z"></path>
<path fill="#f8d24e" style="fill: var(--color2, #f8d24e)" d="M22.629 24.781c0 0.997-0.779 1.805-1.741 1.805s-1.741-0.808-1.741-1.805c0-0.997 0.779-1.805 1.741-1.805s1.741 0.808 1.741 1.805z"></path>
<path fill="#f8d24e" style="fill: var(--color2, #f8d24e)" d="M26.689 22.375c0 0.997-0.779 1.805-1.741 1.805s-1.741-0.808-1.741-1.805c0-0.997 0.779-1.805 1.741-1.805s1.741 0.808 1.741 1.805z"></path>
<path fill="#f8d24e" style="fill: var(--color2, #f8d24e)" d="M20.888 30.196c0 0.997-0.779 1.805-1.741 1.805s-1.741-0.808-1.741-1.805c0-0.997 0.779-1.805 1.741-1.805s1.741 0.808 1.741 1.805z"></path>
<path fill="#f8d24e" style="fill: var(--color2, #f8d24e)" d="M24.659 27.789c0 0.997-0.779 1.805-1.741 1.805s-1.741-0.808-1.741-1.805c0-0.997 0.779-1.805 1.741-1.805s1.741 0.808 1.741 1.805z"></path>
<path fill="#f8d24e" style="fill: var(--color2, #f8d24e)" d="M29.011 25.082c0 0.997-0.779 1.805-1.741 1.805s-1.741-0.808-1.741-1.805c0-0.997 0.779-1.805 1.741-1.805s1.741 0.808 1.741 1.805z"></path>
<path fill="#f8d24e" style="fill: var(--color2, #f8d24e)" d="M33.072 22.676c0 0.997-0.779 1.805-1.741 1.805s-1.741-0.808-1.741-1.805c0-0.997 0.779-1.805 1.741-1.805s1.741 0.808 1.741 1.805z"></path>
<path fill="#f8d24e" style="fill: var(--color2, #f8d24e)" d="M28.431 30.195c0 0.997-0.779 1.805-1.741 1.805s-1.741-0.808-1.741-1.805c0-0.997 0.779-1.805 1.741-1.805s1.741 0.808 1.741 1.805z"></path>
<path fill="#f8d24e" style="fill: var(--color2, #f8d24e)" d="M32.202 27.789c0 0.997-0.779 1.805-1.741 1.805s-1.741-0.808-1.741-1.805c0-0.997 0.779-1.805 1.741-1.805s1.741 0.808 1.741 1.805z"></path>
<path fill="#f8d24e" style="fill: var(--color2, #f8d24e)" d="M36.554 25.082c0 0.997-0.779 1.805-1.741 1.805s-1.741-0.808-1.741-1.805c0-0.997 0.779-1.805 1.741-1.805s1.741 0.808 1.741 1.805z"></path>
<path fill="#f8d24e" style="fill: var(--color2, #f8d24e)" d="M40.616 22.676c0 0.997-0.779 1.805-1.741 1.805s-1.741-0.808-1.741-1.805c0-0.997 0.779-1.805 1.741-1.805s1.741 0.808 1.741 1.805z"></path>
<path fill="#f8d24e" style="fill: var(--color2, #f8d24e)" d="M34.812 29.895c0 0.997-0.779 1.805-1.741 1.805s-1.741-0.808-1.741-1.805c0-0.997 0.779-1.805 1.741-1.805s1.741 0.808 1.741 1.805z"></path>
<path fill="#f8d24e" style="fill: var(--color2, #f8d24e)" d="M38.583 27.488c0 0.997-0.779 1.805-1.741 1.805s-1.741-0.808-1.741-1.805c0-0.997 0.779-1.805 1.741-1.805s1.741 0.808 1.741 1.805z"></path>
<path fill="#f8d24e" style="fill: var(--color2, #f8d24e)" d="M42.936 24.781c0 0.997-0.779 1.805-1.741 1.805s-1.741-0.808-1.741-1.805c0-0.997 0.779-1.805 1.741-1.805s1.741 0.808 1.741 1.805z"></path>
<path fill="#f8d24e" style="fill: var(--color2, #f8d24e)" d="M46.996 22.375c0 0.997-0.779 1.805-1.741 1.805s-1.741-0.808-1.741-1.805c0-0.997 0.779-1.805 1.741-1.805s1.741 0.808 1.741 1.805z"></path>
<path fill="#f8d24e" style="fill: var(--color2, #f8d24e)" d="M42.064 29.594c0 0.997-0.779 1.805-1.741 1.805s-1.741-0.808-1.741-1.805c0-0.997 0.779-1.805 1.741-1.805s1.741 0.808 1.741 1.805z"></path>
<path fill="#f8d24e" style="fill: var(--color2, #f8d24e)" d="M45.836 27.187c0 0.997-0.779 1.805-1.741 1.805s-1.741-0.808-1.741-1.805c0-0.997 0.779-1.805 1.741-1.805s1.741 0.808 1.741 1.805z"></path>
<path fill="#f8d24e" style="fill: var(--color2, #f8d24e)" d="M50.188 24.481c0 0.997-0.779 1.805-1.741 1.805s-1.741-0.808-1.741-1.805c0-0.997 0.779-1.805 1.741-1.805s1.741 0.808 1.741 1.805z"></path>
<path fill="#f8d24e" style="fill: var(--color2, #f8d24e)" d="M54.249 22.074c0 0.997-0.779 1.805-1.741 1.805s-1.741-0.808-1.741-1.805c0-0.997 0.779-1.805 1.741-1.805s1.741 0.808 1.741 1.805z"></path>
<path fill="#f8d24e" style="fill: var(--color2, #f8d24e)" d="M48.737 21.773c0 0.997-0.779 1.805-1.741 1.805s-1.741-0.808-1.741-1.805c0-0.997 0.779-1.805 1.741-1.805s1.741 0.808 1.741 1.805z"></path>
<path fill="#f8d24e" style="fill: var(--color2, #f8d24e)" d="M52.508 19.367c0 0.997-0.779 1.805-1.741 1.805s-1.741-0.808-1.741-1.805c0-0.997 0.779-1.805 1.741-1.805s1.741 0.808 1.741 1.805z"></path>
<path fill="#f8d24e" style="fill: var(--color2, #f8d24e)" d="M56.86 16.66c0 0.997-0.779 1.805-1.741 1.805s-1.741-0.808-1.741-1.805c0-0.997 0.779-1.805 1.741-1.805s1.741 0.808 1.741 1.805z"></path>
<path fill="#f8d24e" style="fill: var(--color2, #f8d24e)" d="M60.921 14.254c0 0.997-0.779 1.805-1.741 1.805s-1.741-0.808-1.741-1.805c0-0.997 0.779-1.805 1.741-1.805s1.741 0.808 1.741 1.805z"></path>
</symbol>
<symbol id="icon-linetablet" viewBox="0 0 356 32">
<path fill="#f8d24e" style="fill: var(--color2, #f8d24e)" d="M306.022 29.57c0 1.021-0.832 1.849-1.858 1.849s-1.858-0.828-1.858-1.849c0-1.021 0.832-1.849 1.858-1.849s1.858 0.828 1.858 1.849z"></path>
<path fill="#f8d24e" style="fill: var(--color2, #f8d24e)" d="M309.737 27.259c0 1.021-0.832 1.849-1.858 1.849s-1.858-0.828-1.858-1.849c0-1.021 0.832-1.849 1.858-1.849s1.858 0.828 1.858 1.849z"></path>
<path fill="#f8d24e" style="fill: var(--color2, #f8d24e)" d="M314.38 24.484c0 1.021-0.832 1.849-1.858 1.849s-1.858-0.828-1.858-1.849c0-1.021 0.832-1.849 1.858-1.849s1.858 0.828 1.858 1.849z"></path>
<path fill="#f8d24e" style="fill: var(--color2, #f8d24e)" d="M318.095 22.173c0 1.021-0.832 1.849-1.858 1.849s-1.858-0.828-1.858-1.849c0-1.021 0.832-1.849 1.858-1.849s1.858 0.828 1.858 1.849z"></path>
<path fill="#f8d24e" style="fill: var(--color2, #f8d24e)" d="M315.773 28.646c0 1.021-0.832 1.849-1.858 1.849s-1.858-0.828-1.858-1.849c0-1.021 0.832-1.849 1.858-1.849s1.858 0.828 1.858 1.849z"></path>
<path fill="#f8d24e" style="fill: var(--color2, #f8d24e)" d="M319.489 26.334c0 1.021-0.832 1.849-1.858 1.849s-1.858-0.828-1.858-1.849c0-1.021 0.832-1.849 1.858-1.849s1.858 0.828 1.858 1.849z"></path>
<path fill="#f8d24e" style="fill: var(--color2, #f8d24e)" d="M324.132 23.56c0 1.021-0.832 1.849-1.858 1.849s-1.858-0.828-1.858-1.849c0-1.021 0.832-1.849 1.858-1.849s1.858 0.828 1.858 1.849z"></path>
<path fill="#f8d24e" style="fill: var(--color2, #f8d24e)" d="M327.847 21.248c0 1.021-0.832 1.849-1.858 1.849s-1.858-0.828-1.858-1.849c0-1.021 0.832-1.849 1.858-1.849s1.858 0.828 1.858 1.849z"></path>
<path fill="#f8d24e" style="fill: var(--color2, #f8d24e)" d="M324.132 27.721c0 1.021-0.832 1.849-1.858 1.849s-1.858-0.828-1.858-1.849c0-1.021 0.832-1.849 1.858-1.849s1.858 0.828 1.858 1.849z"></path>
<path fill="#f8d24e" style="fill: var(--color2, #f8d24e)" d="M327.847 25.409c0 1.021-0.832 1.849-1.858 1.849s-1.858-0.828-1.858-1.849c0-1.021 0.832-1.849 1.858-1.849s1.858 0.828 1.858 1.849z"></path>
<path fill="#f8d24e" style="fill: var(--color2, #f8d24e)" d="M332.491 22.635c0 1.021-0.832 1.849-1.858 1.849s-1.858-0.828-1.858-1.849c0-1.021 0.832-1.849 1.858-1.849s1.858 0.828 1.858 1.849z"></path>
<path fill="#f8d24e" style="fill: var(--color2, #f8d24e)" d="M336.206 20.323c0 1.021-0.832 1.849-1.858 1.849s-1.858-0.828-1.858-1.849c0-1.021 0.832-1.849 1.858-1.849s1.858 0.828 1.858 1.849z"></path>
<path fill="#f8d24e" style="fill: var(--color2, #f8d24e)" d="M332.491 26.334c0 1.021-0.832 1.849-1.858 1.849s-1.858-0.828-1.858-1.849c0-1.021 0.832-1.849 1.858-1.849s1.858 0.828 1.858 1.849z"></path>
<path fill="#f8d24e" style="fill: var(--color2, #f8d24e)" d="M336.206 24.022c0 1.021-0.832 1.849-1.858 1.849s-1.858-0.828-1.858-1.849c0-1.021 0.832-1.849 1.858-1.849s1.858 0.828 1.858 1.849z"></path>
<path fill="#f8d24e" style="fill: var(--color2, #f8d24e)" d="M340.85 21.248c0 1.021-0.832 1.849-1.858 1.849s-1.858-0.828-1.858-1.849c0-1.021 0.832-1.849 1.858-1.849s1.858 0.828 1.858 1.849z"></path>
<path fill="#f8d24e" style="fill: var(--color2, #f8d24e)" d="M344.565 18.936c0 1.021-0.832 1.849-1.858 1.849s-1.858-0.828-1.858-1.849c0-1.021 0.832-1.849 1.858-1.849s1.858 0.828 1.858 1.849z"></path>
<path fill="#f8d24e" style="fill: var(--color2, #f8d24e)" d="M334.813 29.57c0 1.021-0.832 1.849-1.858 1.849s-1.858-0.828-1.858-1.849c0-1.021 0.832-1.849 1.858-1.849s1.858 0.828 1.858 1.849z"></path>
<path fill="#f8d24e" style="fill: var(--color2, #f8d24e)" d="M338.528 27.259c0 1.021-0.832 1.849-1.858 1.849s-1.858-0.828-1.858-1.849c0-1.021 0.832-1.849 1.858-1.849s1.858 0.828 1.858 1.849z"></path>
<path fill="#f8d24e" style="fill: var(--color2, #f8d24e)" d="M343.636 30.033c0 1.021-0.832 1.849-1.858 1.849s-1.858-0.828-1.858-1.849c0-1.021 0.832-1.849 1.858-1.849s1.858 0.828 1.858 1.849z"></path>
<path fill="#f8d24e" style="fill: var(--color2, #f8d24e)" d="M343.171 24.484c0 1.021-0.832 1.849-1.858 1.849s-1.858-0.828-1.858-1.849c0-1.021 0.832-1.849 1.858-1.849s1.858 0.828 1.858 1.849z"></path>
<path fill="#f8d24e" style="fill: var(--color2, #f8d24e)" d="M348.279 27.259c0 1.021-0.832 1.849-1.858 1.849s-1.858-0.828-1.858-1.849c0-1.021 0.832-1.849 1.858-1.849s1.858 0.828 1.858 1.849z"></path>
<path fill="#f8d24e" style="fill: var(--color2, #f8d24e)" d="M352.459 30.033c0 1.021-0.832 1.849-1.858 1.849s-1.858-0.828-1.858-1.849c0-1.021 0.832-1.849 1.858-1.849s1.858 0.828 1.858 1.849z"></path>
<path fill="#f8d24e" style="fill: var(--color2, #f8d24e)" d="M346.887 22.173c0 1.021-0.832 1.849-1.858 1.849s-1.858-0.828-1.858-1.849c0-1.021 0.832-1.849 1.858-1.849s1.858 0.828 1.858 1.849z"></path>
<path fill="#f8d24e" style="fill: var(--color2, #f8d24e)" d="M352.459 24.947c0 1.021-0.832 1.849-1.858 1.849s-1.858-0.828-1.858-1.849c0-1.021 0.832-1.849 1.858-1.849s1.858 0.828 1.858 1.849z"></path>
<path fill="#f8d24e" style="fill: var(--color2, #f8d24e)" d="M356.174 27.721c0 1.021-0.832 1.849-1.858 1.849s-1.858-0.828-1.858-1.849c0-1.021 0.832-1.849 1.858-1.849s1.858 0.828 1.858 1.849z"></path>
<path fill="#f8d24e" style="fill: var(--color2, #f8d24e)" d="M288.376 10.151c0 1.021-0.832 1.849-1.858 1.849s-1.858-0.828-1.858-1.849c0-1.021 0.832-1.849 1.858-1.849s1.858 0.828 1.858 1.849z"></path>
<path fill="#f8d24e" style="fill: var(--color2, #f8d24e)" d="M292.091 7.839c0 1.021-0.832 1.849-1.858 1.849s-1.858-0.828-1.858-1.849c0-1.021 0.832-1.849 1.858-1.849s1.858 0.828 1.858 1.849z"></path>
<path fill="#f8d24e" style="fill: var(--color2, #f8d24e)" d="M296.734 5.065c0 1.021-0.832 1.849-1.858 1.849s-1.858-0.828-1.858-1.849c0-1.021 0.832-1.849 1.858-1.849s1.858 0.828 1.858 1.849z"></path>
<path fill="#f8d24e" style="fill: var(--color2, #f8d24e)" d="M300.449 2.753c0 1.021-0.832 1.849-1.858 1.849s-1.858-0.828-1.858-1.849c0-1.021 0.832-1.849 1.858-1.849s1.858 0.828 1.858 1.849z"></path>
<path fill="#f8d24e" style="fill: var(--color2, #f8d24e)" d="M280.946 9.689c0 1.021-0.832 1.849-1.858 1.849s-1.858-0.828-1.858-1.849c0-1.021 0.832-1.849 1.858-1.849s1.858 0.828 1.858 1.849z"></path>
<path fill="#f8d24e" style="fill: var(--color2, #f8d24e)" d="M284.661 7.377c0 1.021-0.832 1.849-1.858 1.849s-1.858-0.828-1.858-1.849c0-1.021 0.832-1.849 1.858-1.849s1.858 0.828 1.858 1.849z"></path>
<path fill="#f8d24e" style="fill: var(--color2, #f8d24e)" d="M289.304 4.603c0 1.021-0.832 1.849-1.858 1.849s-1.858-0.828-1.858-1.849c0-1.021 0.832-1.849 1.858-1.849s1.858 0.828 1.858 1.849z"></path>
<path fill="#f8d24e" style="fill: var(--color2, #f8d24e)" d="M293.019 2.291c0 1.021-0.832 1.849-1.858 1.849s-1.858-0.828-1.858-1.849c0-1.021 0.832-1.849 1.858-1.849s1.858 0.828 1.858 1.849z"></path>
<path fill="#f8d24e" style="fill: var(--color2, #f8d24e)" d="M297.198 29.57c0 1.021-0.832 1.849-1.858 1.849s-1.858-0.828-1.858-1.849c0-1.021 0.832-1.849 1.858-1.849s1.858 0.828 1.858 1.849z"></path>
<path fill="#f8d24e" style="fill: var(--color2, #f8d24e)" d="M300.914 27.259c0 1.021-0.832 1.849-1.858 1.849s-1.858-0.828-1.858-1.849c0-1.021 0.832-1.849 1.858-1.849s1.858 0.828 1.858 1.849z"></path>
<path fill="#f8d24e" style="fill: var(--color2, #f8d24e)" d="M305.557 24.484c0 1.021-0.832 1.849-1.858 1.849s-1.858-0.828-1.858-1.849c0-1.021 0.832-1.849 1.858-1.849s1.858 0.828 1.858 1.849z"></path>
<path fill="#f8d24e" style="fill: var(--color2, #f8d24e)" d="M309.272 22.173c0 1.021-0.832 1.849-1.858 1.849s-1.858-0.828-1.858-1.849c0-1.021 0.832-1.849 1.858-1.849s1.858 0.828 1.858 1.849z"></path>
<path fill="#f8d24e" style="fill: var(--color2, #f8d24e)" d="M292.555 28.183c0 1.021-0.832 1.849-1.858 1.849s-1.858-0.828-1.858-1.849c0-1.021 0.832-1.849 1.858-1.849s1.858 0.828 1.858 1.849z"></path>
<path fill="#f8d24e" style="fill: var(--color2, #f8d24e)" d="M296.27 25.872c0 1.021-0.832 1.849-1.858 1.849s-1.858-0.828-1.858-1.849c0-1.021 0.832-1.849 1.858-1.849s1.858 0.828 1.858 1.849z"></path>
<path fill="#f8d24e" style="fill: var(--color2, #f8d24e)" d="M300.914 23.097c0 1.021-0.832 1.849-1.858 1.849s-1.858-0.828-1.858-1.849c0-1.021 0.832-1.849 1.858-1.849s1.858 0.828 1.858 1.849z"></path>
<path fill="#f8d24e" style="fill: var(--color2, #f8d24e)" d="M304.628 20.785c0 1.021-0.832 1.849-1.858 1.849s-1.858-0.828-1.858-1.849c0-1.021 0.832-1.849 1.858-1.849s1.858 0.828 1.858 1.849z"></path>
<path fill="#f8d24e" style="fill: var(--color2, #f8d24e)" d="M294.413 21.71c0 1.021-0.832 1.849-1.858 1.849s-1.858-0.828-1.858-1.849c0-1.021 0.832-1.849 1.858-1.849s1.858 0.828 1.858 1.849z"></path>
<path fill="#f8d24e" style="fill: var(--color2, #f8d24e)" d="M298.127 19.398c0 1.021-0.832 1.849-1.858 1.849s-1.858-0.828-1.858-1.849c0-1.021 0.832-1.849 1.858-1.849s1.858 0.828 1.858 1.849z"></path>
<path fill="#f8d24e" style="fill: var(--color2, #f8d24e)" d="M302.771 16.624c0 1.021-0.832 1.849-1.858 1.849s-1.858-0.828-1.858-1.849c0-1.021 0.832-1.849 1.858-1.849s1.858 0.828 1.858 1.849z"></path>
<path fill="#f8d24e" style="fill: var(--color2, #f8d24e)" d="M306.486 14.312c0 1.021-0.832 1.849-1.858 1.849s-1.858-0.828-1.858-1.849c0-1.021 0.832-1.849 1.858-1.849s1.858 0.828 1.858 1.849z"></path>
<path fill="#f8d24e" style="fill: var(--color2, #f8d24e)" d="M294.413 11.076c0 1.021-0.832 1.849-1.858 1.849s-1.858-0.828-1.858-1.849c0-1.021 0.832-1.849 1.858-1.849s1.858 0.828 1.858 1.849z"></path>
<path fill="#f8d24e" style="fill: var(--color2, #f8d24e)" d="M298.127 8.764c0 1.021-0.832 1.849-1.858 1.849s-1.858-0.828-1.858-1.849c0-1.021 0.832-1.849 1.858-1.849s1.858 0.828 1.858 1.849z"></path>
<path fill="#f8d24e" style="fill: var(--color2, #f8d24e)" d="M302.771 5.99c0 1.021-0.832 1.849-1.858 1.849s-1.858-0.828-1.858-1.849c0-1.021 0.832-1.849 1.858-1.849s1.858 0.828 1.858 1.849z"></path>
<path fill="#f8d24e" style="fill: var(--color2, #f8d24e)" d="M306.486 3.678c0 1.021-0.832 1.849-1.858 1.849s-1.858-0.828-1.858-1.849c0-1.021 0.832-1.849 1.858-1.849s1.858 0.828 1.858 1.849z"></path>
<path fill="#f8d24e" style="fill: var(--color2, #f8d24e)" d="M293.484 17.087c0 1.021-0.832 1.849-1.858 1.849s-1.858-0.828-1.858-1.849c0-1.021 0.832-1.849 1.858-1.849s1.858 0.828 1.858 1.849z"></path>
<path fill="#f8d24e" style="fill: var(--color2, #f8d24e)" d="M297.198 14.775c0 1.021-0.832 1.849-1.858 1.849s-1.858-0.828-1.858-1.849c0-1.021 0.832-1.849 1.858-1.849s1.858 0.828 1.858 1.849z"></path>
<path fill="#f8d24e" style="fill: var(--color2, #f8d24e)" d="M301.842 12.001c0 1.021-0.832 1.849-1.858 1.849s-1.858-0.828-1.858-1.849c0-1.021 0.832-1.849 1.858-1.849s1.858 0.828 1.858 1.849z"></path>
<path fill="#f8d24e" style="fill: var(--color2, #f8d24e)" d="M305.557 9.689c0 1.021-0.832 1.849-1.858 1.849s-1.858-0.828-1.858-1.849c0-1.021 0.832-1.849 1.858-1.849s1.858 0.828 1.858 1.849z"></path>
<path fill="#f8d24e" style="fill: var(--color2, #f8d24e)" d="M274.909 8.302c0 1.021-0.728 1.849-1.625 1.849s-1.625-0.828-1.625-1.849c0-1.021 0.728-1.849 1.625-1.849s1.625 0.828 1.625 1.849z"></path>
<path fill="#f8d24e" style="fill: var(--color2, #f8d24e)" d="M278.624 5.99c0 1.021-0.728 1.849-1.625 1.849s-1.625-0.828-1.625-1.849c0-1.021 0.728-1.849 1.625-1.849s1.625 0.828 1.625 1.849z"></path>
<path fill="#f8d24e" style="fill: var(--color2, #f8d24e)" d="M283.267 3.216c0 1.021-0.728 1.849-1.625 1.849s-1.625-0.828-1.625-1.849c0-1.021 0.728-1.849 1.625-1.849s1.625 0.828 1.625 1.849z"></path>
<path fill="#f8d24e" style="fill: var(--color2, #f8d24e)" d="M281.178 10.151c0.898 0 1.625-0.828 1.625-1.849s-0.728-1.849-1.625-1.849c-0.897 0-1.625 0.828-1.625 1.849s0.728 1.849 1.625 1.849z"></path>
<path fill="#f8d24e" style="fill: var(--color2, #f8d24e)" d="M3.715 27.362c0 1.025-0.832 1.855-1.857 1.855s-1.857-0.831-1.857-1.855c0-1.025 0.832-1.855 1.857-1.855s1.857 0.831 1.857 1.855z"></path>
<path fill="#f8d24e" style="fill: var(--color2, #f8d24e)" d="M7.43 25.043c0 1.025-0.832 1.855-1.857 1.855s-1.857-0.831-1.857-1.855c0-1.025 0.832-1.855 1.857-1.855s1.857 0.831 1.857 1.855z"></path>
<path fill="#f8d24e" style="fill: var(--color2, #f8d24e)" d="M12.074 22.261c0 1.025-0.832 1.855-1.857 1.855s-1.857-0.831-1.857-1.855c0-1.025 0.832-1.855 1.857-1.855s1.857 0.831 1.857 1.855z"></path>
<path fill="#f8d24e" style="fill: var(--color2, #f8d24e)" d="M15.789 19.942c0 1.025-0.832 1.855-1.857 1.855s-1.857-0.831-1.857-1.855c0-1.025 0.832-1.855 1.857-1.855s1.857 0.831 1.857 1.855z"></path>
<path fill="#f8d24e" style="fill: var(--color2, #f8d24e)" d="M26.005 28.29c0 1.025-0.832 1.855-1.858 1.855s-1.858-0.831-1.858-1.855c0-1.025 0.832-1.855 1.858-1.855s1.858 0.831 1.858 1.855z"></path>
<path fill="#f8d24e" style="fill: var(--color2, #f8d24e)" d="M29.72 25.971c0 1.025-0.832 1.855-1.858 1.855s-1.858-0.831-1.858-1.855c0-1.025 0.832-1.855 1.858-1.855s1.858 0.831 1.858 1.855z"></path>
<path fill="#f8d24e" style="fill: var(--color2, #f8d24e)" d="M34.364 23.188c0 1.025-0.832 1.855-1.858 1.855s-1.858-0.831-1.858-1.855c0-1.025 0.832-1.855 1.858-1.855s1.858 0.831 1.858 1.855z"></path>
<path fill="#f8d24e" style="fill: var(--color2, #f8d24e)" d="M38.079 20.87c0 1.025-0.832 1.855-1.858 1.855s-1.858-0.831-1.858-1.855c0-1.025 0.832-1.855 1.858-1.855s1.858 0.831 1.858 1.855z"></path>
<path fill="#f8d24e" style="fill: var(--color2, #f8d24e)" d="M34.364 26.899c0 1.025-0.728 1.855-1.625 1.855s-1.625-0.831-1.625-1.855c0-1.025 0.728-1.855 1.625-1.855s1.625 0.831 1.625 1.855z"></path>
<path fill="#f8d24e" style="fill: var(--color2, #f8d24e)" d="M38.078 24.58c0 1.025-0.728 1.855-1.625 1.855s-1.625-0.831-1.625-1.855c0-1.025 0.728-1.855 1.625-1.855s1.625 0.831 1.625 1.855z"></path>
<path fill="#f8d24e" style="fill: var(--color2, #f8d24e)" d="M42.258 22.261c0 1.025-0.728 1.855-1.625 1.855s-1.625-0.831-1.625-1.855c0-1.025 0.728-1.855 1.625-1.855s1.625 0.831 1.625 1.855z"></path>
<path fill="#f8d24e" style="fill: var(--color2, #f8d24e)" d="M46.437 19.942c0 1.025-0.728 1.855-1.625 1.855s-1.625-0.831-1.625-1.855c0-1.025 0.728-1.855 1.625-1.855s1.625 0.831 1.625 1.855z"></path>
<path fill="#f8d24e" style="fill: var(--color2, #f8d24e)" d="M51.081 16.232c0 1.025-0.728 1.855-1.625 1.855s-1.625-0.831-1.625-1.855c0-1.025 0.728-1.855 1.625-1.855s1.625 0.831 1.625 1.855z"></path>
<path fill="#f8d24e" style="fill: var(--color2, #f8d24e)" d="M41.329 18.087c0 1.025-0.728 1.855-1.625 1.855s-1.625-0.831-1.625-1.855c0-1.025 0.728-1.855 1.625-1.855s1.625 0.831 1.625 1.855z"></path>
<path fill="#f8d24e" style="fill: var(--color2, #f8d24e)" d="M17.646 28.29c0 1.025-0.832 1.855-1.857 1.855s-1.857-0.831-1.857-1.855c0-1.025 0.832-1.855 1.857-1.855s1.857 0.831 1.857 1.855z"></path>
<path fill="#f8d24e" style="fill: var(--color2, #f8d24e)" d="M21.361 25.971c0 1.025-0.832 1.855-1.857 1.855s-1.858-0.831-1.858-1.855c0-1.025 0.832-1.855 1.858-1.855s1.858 0.831 1.858 1.855z"></path>
<path fill="#f8d24e" style="fill: var(--color2, #f8d24e)" d="M26.005 23.188c0 1.025-0.832 1.855-1.858 1.855s-1.858-0.831-1.858-1.855c0-1.025 0.832-1.855 1.858-1.855s1.858 0.831 1.858 1.855z"></path>
<path fill="#f8d24e" style="fill: var(--color2, #f8d24e)" d="M29.72 20.87c0 1.025-0.832 1.855-1.858 1.855s-1.858-0.831-1.858-1.855c0-1.025 0.832-1.855 1.858-1.855s1.858 0.831 1.858 1.855z"></path>
<path fill="#f8d24e" style="fill: var(--color2, #f8d24e)" d="M10.216 27.826c0 1.025-0.832 1.855-1.857 1.855s-1.857-0.831-1.857-1.855c0-1.025 0.832-1.855 1.857-1.855s1.857 0.831 1.857 1.855z"></path>
<path fill="#f8d24e" style="fill: var(--color2, #f8d24e)" d="M13.931 25.507c0 1.025-0.832 1.855-1.857 1.855s-1.857-0.831-1.857-1.855c0-1.025 0.832-1.855 1.857-1.855s1.857 0.831 1.857 1.855z"></path>
<path fill="#f8d24e" style="fill: var(--color2, #f8d24e)" d="M18.575 22.725c0 1.025-0.832 1.855-1.858 1.855s-1.857-0.831-1.857-1.855c0-1.025 0.832-1.855 1.857-1.855s1.858 0.831 1.858 1.855z"></path>
<path fill="#f8d24e" style="fill: var(--color2, #f8d24e)" d="M22.29 20.406c0 1.025-0.832 1.855-1.858 1.855s-1.858-0.831-1.858-1.855c0-1.025 0.832-1.855 1.858-1.855s1.858 0.831 1.858 1.855z"></path>
</symbol>
<symbol xmlns="http://www.w3.org/2000/svg" viewBox="0 0 22 16" id="icon-telegram">
<path d="M8.6713 10.5238L8.33384 14.9538C8.81665 14.9538 9.02576 14.7602 9.27651 14.5278L11.5401 12.5088L16.2305 15.7146C17.0907 16.162 17.6968 15.9264 17.9289 14.976L21.0076 1.51162L21.0085 1.51083C21.2813 0.324011 20.5486 -0.140087 19.7105 0.151065L1.61358 6.61749C0.378498 7.06493 0.397199 7.70753 1.40362 7.99868L6.03028 9.34178L16.7771 3.06576C17.2829 2.75319 17.7427 2.92613 17.3645 3.2387L8.6713 10.5238Z"></path>
</symbol>
<symbol id="icon-vector" viewBox="0 0 25 32">
<path stroke-linejoin="miter" stroke-linecap="butt" stroke-miterlimit="4" stroke-width="2.6667" d="M8.063 2.682l14.579 13.607c2.495 2.329 1.115 6.511-2.275 6.898l-5.49 0.627c-1.378 0.157-2.672 0.741-3.703 1.668l-3.164 2.848c-2.574 2.317-6.676 0.49-6.676-2.973v-19.752c0-3.498 4.172-5.311 6.729-2.924z"></path>
</symbol>
<symbol id="icon-vectorright" viewBox="0 0 22 32">
<path d="M3.103 0.726c-0.45 0.45-0.703 1.060-0.703 1.697s0.253 1.247 0.703 1.697l11.88 11.88-11.88 11.88c-0.437 0.453-0.679 1.059-0.674 1.688s0.258 1.231 0.703 1.676 1.047 0.697 1.676 0.703c0.629 0.005 1.236-0.236 1.688-0.674l13.577-13.577c0.45-0.45 0.703-1.060 0.703-1.697s-0.253-1.247-0.703-1.697l-13.577-13.577c-0.45-0.45-1.060-0.703-1.697-0.703s-1.247 0.253-1.697 0.703z"></path>
</symbol>
<symbol id="icon-weight" viewBox="0 0 32 32">
<path fill="#f8d24e" style="fill: var(--color2, #f8d24e)" d="M16 0c8.837 0 16 7.163 16 16s-7.163 16-16 16c-8.837 0-16-7.163-16-16s7.163-16 16-16z"></path>
<path fill="#000" style="fill: var(--color8, #000)" d="M14.688 4.874c-2.861 0.424-5.218 2.013-6.085 4.093-0.277 0.657-0.351 1.061-0.351 1.853 0.005 0.585 0.027 0.802 0.117 1.118 0.186 0.621 0.319 0.937 0.596 1.382l0.255 0.414-0.287 0.352c-2.271 2.826-2.521 6.8-0.628 9.931 0.707 1.175 1.862 2.329 2.989 3.001l0.335 0.197 9.175-0.078 0.218-0.119c0.761-0.43 1.835-1.387 2.436-2.163 0.904-1.18 1.495-2.556 1.745-4.047 0.085-0.533 0.085-2.111-0.005-2.613-0.271-1.547-0.851-2.872-1.766-4.047-0.176-0.223-0.314-0.409-0.314-0.424 0-0.010 0.096-0.171 0.207-0.352 0.261-0.414 0.495-0.947 0.622-1.413 0.144-0.518 0.144-1.811 0-2.329-0.511-1.837-2.042-3.369-4.207-4.212-0.606-0.238-1.644-0.492-2.314-0.574-0.622-0.072-2.159-0.057-2.739 0.031zM17.927 5.717c2.84 0.554 4.92 2.293 5.303 4.435 0.085 0.481 0.032 1.299-0.112 1.754-0.144 0.445-0.41 0.968-0.723 1.413-0.128 0.181-0.234 0.388-0.234 0.455s0.112 0.243 0.271 0.419c1.33 1.475 2.032 3.322 2.032 5.32-0.005 2.272-0.878 4.264-2.558 5.827-0.287 0.269-0.697 0.605-0.915 0.75l-0.399 0.269-8.792 0.036-0.34-0.217c-1.234-0.802-2.346-2.127-2.963-3.534-0.777-1.78-0.856-3.845-0.223-5.698 0.335-0.963 0.782-1.749 1.463-2.577 0.277-0.331 0.404-0.528 0.404-0.621 0-0.078-0.138-0.331-0.319-0.595-0.638-0.926-0.899-1.956-0.745-2.929 0.16-0.983 0.606-1.791 1.431-2.593 1.074-1.040 2.574-1.728 4.335-1.987 0.729-0.109 2.34-0.067 3.085 0.072z"></path>
<path fill="#000" style="fill: var(--color8, #000)" d="M14.927 6.628c-2.181 0.357-3.888 1.568-4.446 3.157-0.128 0.357-0.149 0.497-0.149 1.009s0.021 0.652 0.149 1.009c0.080 0.228 0.229 0.543 0.33 0.704 0.277 0.445 0.399 0.461 0.947 0.129 0.819-0.502 1.761-0.869 2.739-1.071 0.66-0.135 1.925-0.186 2.643-0.104 1.122 0.129 2.34 0.533 3.314 1.107 0.277 0.16 0.558 0.295 0.628 0.295 0.404 0 0.92-1.164 0.92-2.070 0-2.013-1.925-3.736-4.654-4.166-0.58-0.093-1.861-0.093-2.42 0zM17.559 7.456c0.915 0.197 1.755 0.569 2.388 1.061 0.851 0.657 1.308 1.573 1.234 2.458-0.027 0.352-0.16 0.828-0.239 0.88-0.021 0.010-0.319-0.114-0.66-0.279-0.707-0.342-1.511-0.616-2.324-0.792-0.495-0.104-0.702-0.119-1.808-0.114-1.090 0-1.319 0.016-1.792 0.114-0.819 0.176-1.457 0.393-2.244 0.766-0.793 0.378-0.75 0.383-0.894-0.083-0.186-0.605-0.069-1.408 0.293-2.013 0.191-0.321 0.718-0.854 1.101-1.118 0.729-0.502 1.367-0.73 2.739-0.978 0.282-0.052 1.846 0.021 2.207 0.098z"></path>
<path fill="#000" style="fill: var(--color8, #000)" d="M16.693 14.132c-0.149 0.186-0.149 0.362 0.005 0.512 0.101 0.098 0.202 0.124 0.569 0.15 0.713 0.052 1.394 0.259 2.005 0.611 0.436 0.259 1.101 0.885 1.399 1.335 0.441 0.647 0.745 1.573 0.745 2.256 0 0.238 0.021 0.31 0.133 0.414 0.17 0.171 0.394 0.171 0.558 0 0.117-0.119 0.122-0.15 0.090-0.657-0.149-2.505-2.292-4.595-4.856-4.735l-0.532-0.031-0.117 0.145z"></path>
</symbol>
</defs>
</svg>
